<svg viewBox="0 0 32 32" xmlns="http://www.w3.org/2000/svg" xmlns:xlink="http://www.w3.org/1999/xlink" width="32.000000" height="32.000000" fill="none">
	<rect id="social-media_2065203 1" width="32.000000" height="32.000000" x="0.000000" y="0.000000" fill="rgb(255,255,255)" fill-opacity="0" />
	<path id="Vector" d="M14.7985 16.8371C15.3153 17.2105 15.9507 17.4307 16.6378 17.4307L22.515 17.4307L22.515 20.2805L26.2405 17.4307L27.8477 17.4307C29.5803 17.4307 30.9848 16.0305 30.9848 14.3032L30.9848 3.1275C30.9848 1.40021 29.5803 0 27.8477 0L16.6377 0C14.9051 0 13.5006 1.40021 13.5006 3.1275L13.5006 16.8371L14.7985 16.8371Z" fill="rgb(247,243,241)" fill-rule="nonzero" />
	<path id="Vector" d="M27.8476 0L25.1606 0C26.8932 0 28.2977 1.40027 28.2977 3.1275L28.2977 14.3032C28.2977 16.0305 26.8932 17.4307 25.1607 17.4307L23.5534 17.4307L22.5149 18.2251L22.5149 20.2805L26.2404 17.4307L27.8476 17.4307C29.5802 17.4307 30.9847 16.0305 30.9847 14.3032L30.9847 3.1275C30.9848 1.40027 29.5802 0 27.8476 0Z" fill="rgb(239,231,227)" fill-rule="nonzero" />
	<path id="Vector" d="M19.8254 12.8466L20.1487 13.1083C20.6614 13.5233 21.301 13.7497 21.9605 13.7497L26.5507 13.7497C26.9858 13.7497 27.3362 13.3867 27.3155 12.947C27.2961 12.5352 27.3164 8.78474 27.3164 8.36192C27.3164 7.93909 26.9736 7.59623 26.5507 7.59623L23.4381 7.58683L23.8192 6.68427C24.2152 5.74641 24.1512 4.67747 23.646 3.79358C23.3722 3.3703 22.7072 3.52605 22.6943 4.04636C22.6943 4.85576 22.3988 5.63728 21.8633 6.24418L19.8785 8.49004L19.1549 8.49004L19.1549 12.8465L19.8254 12.8466Z" fill="rgb(255,211,108)" fill-rule="nonzero" />
	<path id="Vector" d="M19.5155 13.5372L17.4198 13.5372C17.2813 13.5372 17.1689 13.4249 17.1689 13.2864L17.1689 7.94396C17.1689 7.80547 17.2812 7.69312 17.4198 7.69312L19.5155 7.69312C19.654 7.69312 19.7664 7.8054 19.7664 7.94396L19.7664 13.2864C19.7663 13.4248 19.654 13.5372 19.5155 13.5372Z" fill="rgb(142,230,243)" fill-rule="nonzero" />
	<path id="Vector" d="M14.803 22.4378L14.803 11.1585C14.803 9.79636 13.6954 8.69214 12.329 8.69214L3.48905 8.69214C2.12277 8.69214 1.01514 9.79636 1.01514 11.1585L1.01514 19.9715C1.01514 21.3336 2.12271 22.4378 3.48905 22.4378L8.34539 22.4378L8.34539 24.7061L11.2833 22.4378L14.803 22.4378Z" fill="rgb(114,209,251)" fill-rule="nonzero" />
	<path id="Vector" d="M12.3291 8.69214L8.82593 8.69214C10.1922 8.69214 11.2998 9.79636 11.2998 11.1585L11.2998 22.4378L14.803 22.4378L14.803 11.1585C14.803 9.79636 13.6954 8.69214 12.3291 8.69214Z" fill="rgb(98,166,253)" fill-rule="nonzero" />
	<path id="Vector" d="M11.1509 16.2895L9.37296 16.2895L9.56773 15.1115L11.1509 15.1115C11.7738 15.1115 11.7738 14.1457 11.1509 14.1457L9.7274 14.1457L9.99332 12.5374C10.0949 11.9229 9.14213 11.7653 9.04047 12.3799L8.74854 14.1457L7.5836 14.1457L7.84951 12.5374C7.95111 11.9229 6.99845 11.7652 6.89666 12.3799L6.60473 14.1457L4.66715 14.1457C4.04422 14.1457 4.04422 15.1115 4.66715 15.1115L6.44505 15.1115L6.25029 16.2895L4.66715 16.2895C4.04422 16.2895 4.04422 17.2553 4.66715 17.2553L6.09061 17.2553L5.82469 18.8636C5.72412 19.4716 6.67575 19.6366 6.77754 19.0211L7.06947 17.2553L8.23441 17.2553L7.9685 18.8636C7.86793 19.4716 8.81956 19.6366 8.92135 19.0211L9.21328 17.2553L11.1509 17.2553C11.7738 17.2553 11.7738 16.2895 11.1509 16.2895ZM8.39409 16.2895L7.22921 16.2895L7.42398 15.1115L8.58892 15.1115L8.39409 16.2895Z" fill="rgb(247,243,241)" fill-rule="nonzero" />
	<path id="Vector" d="M19.5885 20.6357L13.3152 20.6357C12.3456 20.6357 11.5596 21.4193 11.5596 22.386L11.5596 28.6401C11.5596 29.6067 12.3456 30.3903 13.3152 30.3903L16.7615 30.3903L16.7615 32.0001L18.8464 30.3903L19.5885 30.3903C20.5581 30.3903 21.3441 29.6068 21.3441 28.6401L21.3441 22.386C21.3441 21.4194 20.5581 20.6357 19.5885 20.6357Z" fill="rgb(250,144,132)" fill-rule="nonzero" />
	<path id="Vector" d="M19.5885 20.6357L16.8843 20.6357C17.8539 20.6357 18.6399 21.4193 18.6399 22.386L18.6399 28.6401C18.6399 29.6068 17.8539 30.3903 16.8843 30.3903L16.7615 30.3903L16.7615 32.0001L18.8464 30.3903L19.5885 30.3903C20.5581 30.3903 21.3441 29.6068 21.3441 28.6401L21.3441 22.386C21.3441 21.4194 20.5581 20.6357 19.5885 20.6357Z" fill="rgb(255,108,181)" fill-rule="nonzero" />
	<path id="Vector" d="M16.4519 27.638C17.9615 26.8378 18.7436 26.1568 18.7436 25.1019C18.7436 23.6469 16.9611 23.2831 16.4519 24.3744C15.8698 23.2468 14.1602 23.6469 14.1602 25.1019C14.1602 26.1568 14.9423 26.8377 16.4519 27.638Z" fill="rgb(247,243,241)" fill-rule="nonzero" />
</svg>
