<svg viewBox="0 0 32 32" xmlns="http://www.w3.org/2000/svg" xmlns:xlink="http://www.w3.org/1999/xlink" width="32.000000" height="32.000000" fill="none">
	<rect id="writing_2327400 1" width="32.000000" height="32.000000" x="0.000000" y="0.000000" fill="rgb(255,255,255)" fill-opacity="0" />
	<g id="Group">
		<path id="Vector" d="M23.4741 32L2.74006 32C1.22675 32 0 30.7733 0 29.2599L0 2.74006C0 1.22675 1.22675 0 2.74006 0L23.474 0C24.9873 0 26.2141 1.22675 26.2141 2.74006L26.2141 29.2599C26.2141 30.7732 24.9874 32 23.4741 32Z" fill="rgb(251,241,207)" fill-rule="nonzero" />
		<path id="Vector" d="M4.44089e-16 2.74006L4.44089e-16 29.2599C4.44089e-16 30.7732 1.22675 32 2.74006 32L12.6287 32L12.6289 31.9999C6.92988 26.5979 5.59381 9.65219 6.31169 0L2.74006 0C1.22675 0 4.44089e-16 1.22675 4.44089e-16 2.74006Z" fill="rgb(245,226,162)" fill-rule="nonzero" />
		<path id="Vector" d="M18.3454 2.90637L8.07711 2.90637C7.5473 2.90637 7.1178 3.33587 7.1178 3.86568L7.1178 5.53718C7.1178 6.067 7.5473 6.4965 8.07711 6.4965L18.3454 6.4965C18.8752 6.4965 19.3047 6.067 19.3047 5.53718L19.3047 3.86568C19.3047 3.33587 18.8752 2.90637 18.3454 2.90637Z" fill="rgb(179,155,219)" fill-rule="nonzero" />
		<g id="Group">
			<path id="Vector" d="M21.3659 11.1152L18.4193 11.1152C18.1603 11.1152 17.9505 10.9054 17.9505 10.6465C17.9505 10.3875 18.1603 10.1777 18.4193 10.1777L21.3659 10.1777C21.6248 10.1777 21.8346 10.3875 21.8346 10.6465C21.8346 10.9054 21.6248 11.1152 21.3659 11.1152Z" fill="rgb(78,86,96)" fill-rule="nonzero" />
			<path id="Vector" d="M15.524 11.1152L4.84827 11.1152C4.58933 11.1152 4.37952 10.9054 4.37952 10.6465C4.37952 10.3875 4.58933 10.1777 4.84827 10.1777L15.524 10.1777C15.7829 10.1777 15.9927 10.3875 15.9927 10.6465C15.9928 10.9054 15.7829 11.1152 15.524 11.1152Z" fill="rgb(78,86,96)" fill-rule="nonzero" />
			<path id="Vector" d="M21.3659 14.676L10.11 14.676C9.85105 14.676 9.64124 14.4662 9.64124 14.2073C9.64124 13.9483 9.85105 13.7385 10.11 13.7385L21.3659 13.7385C21.6249 13.7385 21.8347 13.9483 21.8347 14.2073C21.8346 14.4662 21.6248 14.676 21.3659 14.676Z" fill="rgb(78,86,96)" fill-rule="nonzero" />
			<path id="Vector" d="M7.2147 14.676L4.84827 14.676C4.58933 14.676 4.37952 14.4662 4.37952 14.2073C4.37952 13.9483 4.58933 13.7385 4.84827 13.7385L7.21464 13.7385C7.47358 13.7385 7.68339 13.9483 7.68339 14.2073C7.68345 14.4662 7.47358 14.676 7.2147 14.676Z" fill="rgb(78,86,96)" fill-rule="nonzero" />
			<path id="Vector" d="M21.3658 18.2368L14.4309 18.2368C14.172 18.2368 13.9622 18.027 13.9622 17.7681C13.9622 17.5091 14.172 17.2993 14.4309 17.2993L21.3658 17.2993C21.6248 17.2993 21.8346 17.5091 21.8346 17.7681C21.8346 18.027 21.6248 18.2368 21.3658 18.2368Z" fill="rgb(78,86,96)" fill-rule="nonzero" />
			<path id="Vector" d="M11.5357 18.2368L4.84827 18.2368C4.58933 18.2368 4.37952 18.027 4.37952 17.7681C4.37952 17.5091 4.58933 17.2993 4.84827 17.2993L11.5357 17.2993C11.7946 17.2993 12.0045 17.5091 12.0045 17.7681C12.0045 18.027 11.7946 18.2368 11.5357 18.2368Z" fill="rgb(78,86,96)" fill-rule="nonzero" />
			<path id="Vector" d="M9.23089 21.7977L4.84827 21.7977C4.58933 21.7977 4.37952 21.5879 4.37952 21.329C4.37952 21.07 4.58933 20.8602 4.84827 20.8602L9.23089 20.8602C9.48983 20.8602 9.69964 21.07 9.69964 21.329C9.69964 21.5879 9.48983 21.7977 9.23089 21.7977Z" fill="rgb(78,86,96)" fill-rule="nonzero" />
		</g>
		<g id="Group">
			<path id="Vector" d="M17.4817 25.7085C14.0077 29.1825 11.9792 29.6255 11.1154 28.7616C10.2515 27.8978 10.6945 25.8693 14.1685 22.3953L17.4817 25.7085Z" fill="rgb(238,208,118)" fill-rule="nonzero" />
			<path id="Vector" d="M15.6628 27.3667C16.2186 26.9146 16.8243 26.3659 17.4818 25.7085L14.1686 22.3953C13.5111 23.0528 12.9624 23.6584 12.5103 24.2142L15.6628 27.3667Z" fill="rgb(237,167,73)" fill-rule="nonzero" />
			<path id="Vector" d="M11.5431 25.5525C10.545 27.1588 10.5572 28.2034 11.1153 28.7616C11.6735 29.3197 12.718 29.3319 14.3244 28.3338L11.5431 25.5525Z" fill="rgb(78,86,96)" fill-rule="nonzero" />
			<path id="Vector" d="M29.8808 14.9942C26.3365 19.2514 23.4828 22.7237 17.7704 26.4662C17.2858 26.7837 16.6441 26.7164 16.2345 26.3067L13.5703 23.6427C13.1607 23.233 13.0933 22.5913 13.4108 22.1067C17.1533 16.3944 20.6257 13.5406 24.8829 9.9963C25.3695 9.59118 26.0852 9.62343 26.533 10.0711L29.806 13.3442C30.2537 13.7919 30.286 14.5076 29.8808 14.9942Z" fill="rgb(141,174,225)" fill-rule="nonzero" />
			<path id="Vector" d="M20.8721 24.253C18.1841 22.2899 17.964 18.2826 18.4364 15.7654C16.7511 17.5117 15.1087 19.5149 13.4108 22.1066C13.0933 22.5912 13.1606 23.2329 13.5703 23.6425L16.2344 26.3066C16.644 26.7163 17.2857 26.7836 17.7703 26.4661C18.9085 25.7205 19.9328 24.9856 20.8721 24.253Z" fill="rgb(106,149,214)" fill-rule="nonzero" />
			<path id="Vector" d="M31.7118 9.316L30.5609 8.16519C30.1766 7.78088 29.5536 7.78088 29.1693 8.16519L26.8981 10.4363L29.4406 12.9788L31.7118 10.7077C32.0961 10.3234 32.0961 9.70031 31.7118 9.316Z" fill="rgb(162,221,253)" fill-rule="nonzero" />
			<path id="Vector" d="M0 0L3.59508 0L3.59508 1.29049L0 1.29049L0 0Z" fill="rgb(122,205,249)" fill-rule="nonzero" transform="matrix(0.707107,0.707107,-0.707107,0.707107,27.8091,9.51965)" />
			<path id="Vector" d="M20.5682 13.6964L26.1806 19.3088C26.3919 19.0778 26.6011 18.8454 26.809 18.6112L21.2657 13.068C21.0316 13.2759 20.7991 13.4851 20.5682 13.6964Z" fill="rgb(238,208,118)" fill-rule="nonzero" />
			<path id="Vector" d="M22.4625 22.9017L22.1491 22.5883C21.6562 22.0953 21.6562 21.2962 22.1491 20.8033L26.7526 16.1998C27.2456 15.7068 28.0447 15.7068 28.5376 16.1998L28.851 16.5132C29.3439 17.0061 29.3439 17.8053 28.851 18.2982L24.2475 22.9017C23.7546 23.3946 22.9554 23.3946 22.4625 22.9017Z" fill="rgb(78,86,96)" fill-rule="nonzero" />
		</g>
	</g>
</svg>
